<?xml version="1.0" encoding="utf-8"?>
<!-- Generator: Adobe Illustrator 26.5.0, SVG Export Plug-In . SVG Version: 6.00 Build 0)  -->
<svg version="1.1"
	 id="svg8" xmlns:sodipodi="http://sodipodi.sourceforge.net/DTD/sodipodi-0.dtd" xmlns:dc="http://purl.org/dc/elements/1.1/" xmlns:inkscape="http://www.inkscape.org/namespaces/inkscape" xmlns:cc="http://creativecommons.org/ns#" xmlns:rdf="http://www.w3.org/1999/02/22-rdf-syntax-ns#" xmlns:svg="http://www.w3.org/2000/svg" sodipodi:docname="wr-square.svg"
	 xmlns="http://www.w3.org/2000/svg" xmlns:xlink="http://www.w3.org/1999/xlink" x="0px" y="0px" viewBox="0 0 2048 2048"
	 style="enable-background:new 0 0 2048 2048;" xml:space="preserve">
<style type="text/css">
	.st0{display:none;}
	.st1{display:inline;fill:url(#path945_00000153692526920351347640000006505453710288784005_);}
	.st2{fill-rule:evenodd;clip-rule:evenodd;fill:url(#SVGID_1_);}
	.st3{fill:#1B2347;stroke:#1B2347;stroke-width:2.0564;}
	.st4{fill:#1B2347;stroke:#1B2347;stroke-width:2.0597;stroke-miterlimit:15.1181;}
	.st5{fill:#FFFFFF;}
	.st6{fill:#D4DBFA;}
</style>
<sodipodi:namedview  bordercolor="#666666" borderopacity="1.0" id="base" inkscape:current-layer="layer6" inkscape:cx="1449.7386" inkscape:cy="1079.3196" inkscape:document-rotation="0" inkscape:document-units="px" inkscape:guide-bbox="true" inkscape:object-nodes="false" inkscape:pageopacity="0.0" inkscape:pageshadow="2" inkscape:snap-others="false" inkscape:window-height="1017" inkscape:window-maximized="1" inkscape:window-width="1920" inkscape:window-x="-8" inkscape:window-y="-8" inkscape:zoom="0.2798316" objecttolerance="10000" pagecolor="#ffffff" showgrid="false" showguides="true" units="px">

		<sodipodi:guide  id="guide1539" inkscape:color="rgb(0,0,255)" inkscape:label="" inkscape:locked="false" orientation="0,1" position="-251.50543,270.93333">
		</sodipodi:guide>

		<sodipodi:guide  id="guide1618" inkscape:color="rgb(0,0,255)" inkscape:label="" inkscape:locked="false" orientation="-1,0" position="270.93333,270.93333">
		</sodipodi:guide>
</sodipodi:namedview>
<g id="layer1" inkscape:groupmode="layer" inkscape:label="Ebene 1" sodipodi:insensitive="true" class="st0">

</g>

<g id="layer6" inkscape:groupmode="layer" inkscape:label="Circle 1">
	<linearGradient id="SVGID_1_" gradientUnits="userSpaceOnUse" x1="1581.463" y1="1020.5261" x2="344.6427" y2="1027.0085">
		<stop  offset="0" style="stop-color:#FAFAC5"/>
		<stop  offset="1" style="stop-color:#FAFAAF"/>
	</linearGradient>
	<path class="st2" d="M2048,1024c0,492.2-347.3,903.3-810.2,1001.7c-52.1,11.1-105.6,18.2-160.3,21H970.6
		c-300-15.4-565.9-160-743.2-379.2C85.2,1491.6,0,1267.8,0,1024C0,458.5,458.5,0,1024,0S2048,458.5,2048,1024z"/>
</g>
<g id="layer2" inkscape:groupmode="layer" inkscape:label="Hand">
	<path class="st3" d="M970.6,2046.6c-300-15.4-565.9-160-743.2-379.2c80.2,29,166.3,54.6,239.7,63.8
		c204.9,25.7,254.1-30.1,254.1-30.1s41.5-43.7,27.9-137c-13.6-93.3,7.7-136.8,7.7-136.8s38.6-67.8-8.4-132.4
		c-17.3-23.8-29.7-43.2-38.5-58.4c-15.1-26.1-19.5-39.3-19.5-39.3s69.8,13.8,107.8,39.3c11.1,7.5,19.5,15.9,22.6,25.3
		c13.6,41.5-4.4,57.7,13.2,89.2c17.6,31.6,42.6,57.3,59.9,65c17.3,7.7,36.4,5.5,36.4,5.5s48.9-116.5,71.5-139.6
		c15-15.3,28.8-34.8,45.3-45.5c8.4-5.5,17.6-8.6,27.9-7.7c11.3,1,17,4,19.6,7.7c4.4,6.3-0.5,14.6-2.4,17.2
		c-3.1,4.1-41.3,44.1-48.6,71.7c-7.3,27.5-9.4,23.4-13,42.1c-3.6,18.4-9.2,44.6-9.3,45.4c1-1.4,63-88.4,82.6-104.9
		c14.5-12.2,41.5-50.1,76.8-71.4c12.8-7.8,26.8-13.4,41.6-14.8c32.2-3,35.6,6.3,32.8,14.8c-1.3,4-4.1,7.8-5.9,10
		c1.5-1.7,5-5.7,9.1-10c7-7.2,15.9-15.3,20.5-15.3c7.2,0,40.8-0.4,43.3,15.3c0.4,2.5,0.1,5.3-1.3,8.6c-9.9,24.4-37.9,36.4-54.5,47.3
		c-16.6,10.9-101.3,86.7-124.6,123.6c-23.4,36.9-44.1,88.8-73.2,114.2c-29.1,25.5-41.5,23.9-67.5,39.5c-26,15.6-80,55.1-90.9,113.2
		c-10.9,58.2-16.1,137.1,62.8,195.8c38.8,28.8,122.6,85.9,265,146.8c-52.1,11.1-105.6,18.2-160.3,21"/>
</g>
<g id="layer3" inkscape:groupmode="layer" inkscape:label="rOBOT">
	<path id="rect861" class="st4" d="M670.2,813.6h683.6c122.3,0,221.5,94.7,221.5,211.5v0c0,116.8-99.2,211.5-221.5,211.5H670.2
		c-122.3,0-221.5-94.7-221.5-211.5v0C448.7,908.3,547.9,813.6,670.2,813.6z"/>
</g>
<ellipse id="path863" class="st5" cx="686.3" cy="1030.2" rx="116.8" ry="119.5"/>
<circle id="path863-0" class="st6" cx="686.3" cy="1030.2" r="81.6"/>
<ellipse id="path863-6" class="st5" cx="1350.9" cy="1030.2" rx="116.8" ry="119.5"/>
<circle id="path863-0-1" class="st6" cx="1350.9" cy="1030.2" r="81.6"/>
</svg>
