<svg xmlns="http://www.w3.org/2000/svg" xmlns:xlink="http://www.w3.org/1999/xlink" width="250" height="250.005" viewBox="0 0 250 250.005">
  <defs>
    <linearGradient id="linear-gradient" x1="0.2" y1="0.321" x2="0.78" y2="0.539" gradientUnits="objectBoundingBox">
      <stop offset="0" stop-color="#dadffa"/>
      <stop offset="1" stop-color="#91a3f2"/>
    </linearGradient>
  </defs>
  <g id="wr-bluebg-cut" transform="translate(-7.34 -7.22)">
    <g id="layer5">
      <circle id="path945" cx="125" cy="125" r="125" transform="translate(7.34 7.22)" fill="url(#linear-gradient)"/>
    </g>
    <g id="layer4">
      <g id="g870" transform="translate(0.529)">
        <path id="path35" d="M61.852,224.166c24.532,6.321,32.695-3.874,32.695-3.874s5.339-5.622,3.591-17.623.992-17.6.992-17.6,4.961-8.717-1.087-17.033-7.465-12.568-7.465-12.568,15.024,2.977,16.773,8.315-.567,7.418,1.7,11.481,5.481,7.371,7.7,8.363a10.078,10.078,0,0,0,4.677.709s6.29-14.987,9.2-17.96,5.479-7.183,9.421-6.849,2.606,2.673,2.2,3.207-5.312,5.679-6.247,9.221-1.2,3.007-1.67,5.412-1.2,5.847-1.2,5.847,8.085-11.359,10.624-13.5,8.085-10.424,15.234-11.092,3.274,3.408,3.274,3.408,2.94-3.475,4.009-3.475,6.682-.067,5.412,3.074-4.878,4.677-7.016,6.08-13.029,11.158-16.036,15.9-5.679,11.426-9.421,14.7-5.345,3.074-8.686,5.078-10.6,7.031-11.693,14.566C117,231.805,127.6,245.9,147.966,256.054c-37.763,4.635-78.51-6.236-109.347-40.721,0,0,15.191,6.54,23.232,8.833Z" fill="#1b2347" stroke="#1b2347" stroke-width="0.265"/>
        <path id="rect861" d="M87.989,105.008h87.954c15.789,0,28.5,12.138,28.5,27.214s-12.711,27.214-28.5,27.214H87.989c-15.789,0-28.5-12.138-28.5-27.214S72.2,105.008,87.989,105.008Z" fill="#1b2347" stroke="#1b2347" stroke-width="0.265"/>
        <path id="path863" d="M105.086,132.879a15.028,15.028,0,1,1-15.024-15.372,15.2,15.2,0,0,1,15.024,15.372Z" fill="#fff"/>
        <path id="path863-0" d="M100.562,132.879a10.5,10.5,0,1,1-10.5-10.5,10.5,10.5,0,0,1,10.5,10.5Z" fill="#1836c4"/>
        <path id="path863-6" d="M190.586,132.879a15.029,15.029,0,1,1-15.024-15.372,15.2,15.2,0,0,1,15.024,15.372Z" fill="#fff"/>
        <path id="path863-0-1" d="M186.062,132.879a10.5,10.5,0,1,1-10.5-10.5A10.5,10.5,0,0,1,186.062,132.879Z" fill="#1836c4"/>
      </g>
    </g>
  </g>
</svg>
